<?xml version="1.0" standalone="no"?>
<!DOCTYPE svg PUBLIC "-//W3C//DTD SVG 20010904//EN"
 "http://www.w3.org/TR/2001/REC-SVG-20010904/DTD/svg10.dtd">
<svg version="1.0" xmlns="http://www.w3.org/2000/svg"
 width="707.000000pt" height="707.000000pt" viewBox="0 0 707.000000 707.000000"
 preserveAspectRatio="xMidYMid meet">
<metadata>
Created by potrace 1.14, written by Peter Selinger 2001-2017
</metadata>
<g transform="translate(0.000000,707.000000) scale(0.100000,-0.100000)"
fill="#000000" stroke="none">
<path d="M3608 6175 c-2 -1 -32 -5 -68 -9 -36 -3 -76 -8 -90 -10 -14 -3 -43
-7 -64 -11 -33 -4 -97 -18 -200 -40 -229 -51 -684 -240 -891 -370 -112 -70
-315 -223 -315 -237 0 -6 13 -8 30 -6 16 2 31 -1 33 -7 3 -7 48 -10 131 -10
69 0 126 -2 126 -6 0 -3 -9 -14 -20 -24 -11 -10 -33 -39 -50 -65 l-30 -47
-615 0 c-593 0 -666 -3 -625 -28 7 -4 286 -7 621 -6 335 0 609 -3 609 -7 -1
-30 -20 -33 -189 -33 -159 1 -172 0 -188 -19 -13 -15 -31 -20 -73 -22 l-55 -2
48 -3 c26 -2 47 -6 47 -8 0 -2 -27 -40 -60 -83 -33 -44 -60 -83 -60 -86 0 -3
80 -6 179 -6 l179 0 53 63 c30 35 63 71 75 79 20 16 20 15 18 -61 l-1 -76 -39
0 c-36 -1 -41 -4 -65 -50 -15 -28 -30 -60 -33 -72 -6 -19 -3 -21 26 -21 112 1
118 0 119 -29 2 -26 2 -25 10 7 6 26 7 17 4 -35 -2 -57 1 -75 17 -100 l20 -30
-31 33 c-31 33 -43 24 -16 -12 19 -25 19 -36 0 -36 -8 0 -15 -8 -15 -17 -1
-16 -2 -15 -12 2 -7 11 -18 26 -25 33 -7 7 -13 16 -13 20 0 4 -18 8 -41 9 -23
1 -44 4 -47 7 -3 4 4 20 17 36 l22 30 -96 0 c-76 0 -95 -3 -95 -14 0 -16 -18
-31 -26 -23 -3 3 10 29 30 59 20 29 36 55 36 58 0 3 -77 6 -170 5 l-171 0 -22
-40 c-22 -38 -25 -40 -77 -43 -42 -2 -59 -8 -71 -24 -16 -20 -25 -21 -220 -22
-186 -1 -204 -3 -207 -18 -3 -17 11 -18 197 -18 l201 0 -27 -57 c-15 -32 -28
-59 -29 -61 -1 -2 -18 -4 -38 -5 -29 -2 -38 -7 -42 -24 -8 -29 2 -42 26 -36
25 7 25 10 -5 -73 -14 -38 -25 -70 -25 -71 0 -1 26 -1 58 1 l59 2 -15 -45 c-7
-25 -20 -65 -28 -88 -13 -42 -12 -43 9 -44 97 -4 270 -3 276 1 4 3 22 48 40
100 48 138 87 220 105 220 20 0 21 0 -9 -71 -14 -33 -23 -63 -21 -68 5 -8 152
-9 159 -1 2 3 16 35 31 71 l28 67 66 -3 c37 -1 70 -3 73 -4 4 0 10 -17 13 -36
5 -26 0 -53 -22 -107 -16 -40 -35 -94 -42 -120 l-13 -48 -63 0 c-60 0 -64 -2
-64 -22 -1 -13 -3 -49 -6 -80 l-6 -58 61 0 c47 0 61 3 62 15 1 8 3 20 4 25 1
6 3 18 5 28 5 42 31 -56 35 -131 5 -115 11 -134 56 -190 21 -27 39 -57 40 -66
2 -72 9 -131 19 -156 13 -34 48 -75 65 -75 6 0 28 -15 48 -32 20 -18 46 -40
57 -48 16 -11 21 -25 20 -55 -1 -22 -2 -111 -3 -197 0 -87 -4 -158 -9 -159
-56 -5 -341 0 -348 7 -15 15 -32 250 -34 471 -1 73 -5 135 -8 138 -6 6 -44 8
-100 6 l-27 -1 4 -207 c2 -114 0 -202 -3 -197 -4 6 -66 10 -147 10 -151 -1
-142 3 -137 -54 2 -15 16 -17 150 -17 l148 0 2 -32 c2 -30 0 -33 -25 -34 -15
-1 -32 0 -38 1 -8 2 -172 6 -380 10 -6 0 -11 28 -12 63 -2 91 -5 430 -4 445 1
8 22 12 71 12 39 0 71 3 71 8 3 16 7 55 13 143 4 51 8 95 10 98 2 3 7 26 10
51 5 40 13 82 19 112 1 7 -47 11 -123 12 -116 1 -125 2 -125 20 0 17 -8 19
-65 19 -97 -1 -99 -2 -98 -20 0 -10 -3 -28 -5 -40 -5 -21 -3 -22 51 -21 64 2
61 7 49 -87 -4 -27 -10 -80 -13 -117 -4 -38 -12 -69 -18 -69 -6 -1 -30 -2 -53
-3 -48 -1 -57 -8 -59 -44 -1 -15 -2 -35 -3 -46 -1 -11 -6 -16 -14 -13 -34 13
-39 -8 -37 -159 0 -82 3 -197 5 -256 3 -95 1 -108 -13 -109 -10 -1 -52 -1 -95
0 -87 0 -79 12 -78 -106 0 -105 3 -102 -91 -99 -46 1 -95 -2 -110 -5 -15 -4
-30 -3 -34 2 -3 5 -10 6 -16 3 -6 -4 -24 -7 -40 -6 -15 0 -26 -3 -23 -7 2 -5
15 -8 27 -7 13 1 30 -4 39 -11 14 -12 17 -11 23 2 3 9 10 13 16 10 6 -4 8 -10
6 -14 -3 -4 13 -7 34 -7 21 0 36 4 33 9 -3 5 3 4 14 -2 14 -7 24 -7 33 2 10 9
11 9 6 0 -9 -16 -1 -16 26 -2 16 8 19 8 13 -1 -5 -9 -1 -10 14 -5 13 4 21 2
21 -5 0 -6 -4 -8 -10 -5 -5 3 -10 0 -10 -8 0 -8 -7 -18 -16 -21 -8 -3 -13 -2
-9 3 3 5 2 11 -2 14 -5 2 -1 2 7 0 11 -3 12 -1 3 8 -14 14 -34 3 -27 -15 3 -7
-1 -13 -9 -13 -9 0 -13 8 -10 21 4 17 3 18 -6 6 -7 -10 -11 -11 -11 -2 0 6 -4
12 -10 12 -12 0 -9 -22 5 -32 15 -12 -7 -10 -25 2 -13 9 -13 10 0 10 13 0 13
1 0 10 -24 15 -29 12 -24 -17 3 -24 2 -25 -7 -10 -10 17 -12 17 -35 2 -16 -11
-23 -12 -22 -3 3 14 -22 18 -39 6 -6 -5 -14 -4 -18 2 -5 8 -11 8 -21 -1 -10
-8 -14 -8 -14 0 0 13 -22 11 -32 -3 -4 -6 -12 -6 -20 0 -12 9 -19 10 -45 5 -5
-1 -1 -6 7 -12 12 -8 12 -10 1 -7 -8 2 -26 19 -40 38 -14 19 -21 31 -16 28 6
-4 11 2 11 13 0 18 -15 28 -17 12 -7 -42 -5 -60 9 -71 15 -11 14 -13 -11 -8
-16 3 -25 1 -22 -5 4 -5 2 -9 -4 -9 -5 0 -12 6 -14 13 -4 8 -6 9 -6 0 -1 -8
-10 -9 -30 -3 -25 7 -29 6 -24 -8 5 -14 3 -15 -8 -5 -17 17 -49 17 -49 1 0 -7
-5 -5 -11 5 -8 13 -15 15 -28 8 -12 -7 -22 -6 -28 0 -8 8 -13 7 -17 0 -4 -6
-12 -11 -17 -11 -6 0 -8 4 -4 9 3 6 -6 6 -24 1 -21 -6 -31 -5 -35 3 -3 8 -5 8
-5 -1 -1 -10 -6 -10 -22 -1 -17 9 -20 8 -14 -2 6 -9 3 -10 -11 -5 -15 6 -16 5
-7 -5 15 -15 415 -20 406 -5 -4 5 0 5 8 0 8 -5 87 -9 177 -10 90 0 157 3 150
7 -9 6 -9 9 -1 9 6 0 15 -5 18 -10 3 -6 26 -8 51 -6 l44 3 -3 -48 c-2 -43 0
-49 18 -50 11 0 97 -1 192 -1 l172 0 25 -64 c14 -35 26 -66 26 -68 0 -3 -37
-5 -82 -4 -147 0 -134 5 -133 -53 l0 -52 133 1 133 0 39 -76 c21 -43 53 -100
69 -129 l31 -52 -388 1 c-213 0 -397 -1 -410 -1 -18 -1 -23 -6 -20 -23 l3 -23
422 0 c232 0 424 -2 426 -5 3 -3 33 -43 67 -90 57 -78 150 -190 207 -249 13
-13 23 -27 23 -31 0 -4 -27 -6 -60 -5 -35 1 -60 -2 -60 -8 0 -12 70 -139 103
-187 l25 -35 136 0 c75 0 136 2 136 6 0 3 -10 14 -21 25 -24 21 -139 173 -139
183 0 4 28 7 63 8 34 0 96 2 137 3 150 5 124 22 297 -209 11 -15 0 -16 -122
-14 -74 1 -135 0 -135 -2 0 -2 12 -15 27 -29 25 -23 33 -25 137 -25 142 0 133
1 140 -16 5 -13 -14 -15 -129 -15 -115 0 -138 3 -153 17 -14 15 -36 18 -120
18 -117 1 -112 8 -56 -93 l35 -62 129 0 c72 0 130 2 130 5 0 2 -20 23 -45 46
-52 48 -53 65 -1 25 19 -14 37 -26 41 -26 3 0 23 -11 44 -24 228 -145 750
-336 1036 -380 170 -27 191 -28 437 -30 125 -1 230 -5 234 -9 4 -3 15 -2 25 4
12 6 19 6 19 0 0 -5 -6 -12 -12 -14 -7 -3 -3 -6 10 -6 13 -1 21 -5 18 -10 -6
-10 -20 -9 -47 3 -9 4 -45 2 -80 -4 -35 -7 -80 -14 -99 -16 -44 -6 -52 -14
-14 -15 25 0 26 -2 9 -9 -14 -6 -15 -9 -4 -9 8 -1 21 5 28 11 11 10 13 10 7 1
-9 -15 21 -17 77 -4 22 5 39 5 43 0 3 -5 9 -7 14 -4 5 3 40 7 78 10 38 2 82 9
98 16 16 6 36 12 44 14 63 13 514 174 551 197 25 15 51 28 57 28 5 0 66 23
135 50 91 37 138 50 175 50 45 0 49 2 48 22 -1 18 19 34 104 84 58 33 131 77
163 97 44 27 68 35 95 33 21 -2 42 1 49 6 16 12 5 38 -13 31 -26 -10 -14 12
23 44 l38 32 -85 1 -84 0 63 57 c50 45 71 58 97 58 43 2 47 7 69 75 10 30 36
78 58 105 23 28 42 52 43 53 1 2 47 4 101 4 l98 0 28 36 c15 20 26 41 25 47
-2 5 -27 10 -56 11 -29 1 -54 3 -57 5 -3 4 35 200 41 207 1 2 10 5 21 6 32 5
159 265 232 479 11 31 19 58 18 58 -1 1 -58 2 -127 3 -118 2 -125 3 -122 22 2
18 -3 20 -75 19 -88 0 -82 6 -127 -117 l-24 -68 54 0 c37 0 54 -4 53 -12 -1
-24 -84 -173 -96 -174 -7 -1 -32 -2 -55 -3 -42 -1 -44 -2 -85 -72 -24 -39 -41
-75 -38 -79 2 -4 24 -7 49 -5 36 1 43 -1 38 -14 -3 -9 -9 -18 -13 -21 -4 -3
-27 -57 -52 -120 l-44 -114 -89 -1 c-83 0 -89 2 -88 20 2 24 12 93 24 153 9
49 4 54 -50 49 l-35 -2 -19 -100 c-10 -55 -20 -101 -21 -103 -4 -5 -101 41
-140 67 -22 14 -51 28 -65 29 -39 5 -102 46 -158 102 -57 56 -70 87 -52 120 8
15 8 35 0 74 -12 60 -7 78 49 163 l34 53 -16 55 c-19 69 -15 136 14 201 12 28
22 69 22 95 -1 43 -28 143 -58 214 -17 39 -48 146 -48 165 -1 30 26 136 40
164 19 36 4 97 -29 120 -19 14 -20 16 -5 22 25 9 21 27 -4 19 -15 -5 -19 -4
-15 4 4 6 14 11 22 11 8 0 14 7 14 15 0 8 27 67 61 132 33 65 64 141 70 168 6
31 26 75 53 115 72 107 83 132 80 174 -3 42 -19 68 -21 35 -1 -12 -20 -51 -42
-87 -52 -88 -78 -121 -50 -63 59 122 67 158 65 303 -1 85 3 139 9 141 5 2 129
4 275 3 l265 -1 45 -92 45 -93 56 0 c51 0 57 -2 68 -27 18 -40 61 -154 61
-163 0 -4 -15 -6 -34 -4 l-34 4 8 -42 c5 -24 14 -72 21 -106 l12 -64 44 4 c24
2 43 -1 43 -7 0 -5 3 -20 6 -31 4 -17 0 -23 -18 -27 -21 -6 -23 -11 -20 -41 4
-31 6 -33 35 -31 30 3 32 2 32 -31 l1 -34 -73 0 -73 0 4 -27 c3 -16 6 -72 8
-125 l3 -98 77 0 78 0 0 -105 c0 -62 -4 -106 -10 -106 -5 -1 -33 -2 -62 -3
-57 -1 -53 6 -62 -105 -3 -38 -8 -80 -10 -93 -3 -13 -7 -38 -10 -55 -5 -36 -8
-35 87 -35 15 -1 27 -2 27 -4 0 -5 -31 -138 -36 -155 -4 -14 14 -16 144 -17
l149 -1 11 37 c6 20 16 67 22 105 7 37 16 68 21 68 36 5 44 2 44 -15 0 -17 8
-19 73 -20 41 -1 76 2 78 5 2 4 6 24 9 45 3 22 8 50 10 64 2 14 7 59 11 101
l6 75 -74 0 c-40 -1 -76 -5 -80 -11 -4 -5 -8 -29 -8 -52 0 -41 -1 -43 -30 -43
l-31 0 5 68 c9 107 10 241 4 248 -4 3 -38 6 -77 6 -39 0 -73 3 -75 7 -2 3 -7
59 -10 124 l-6 117 76 -3 75 -3 -4 36 -3 35 -106 1 c-58 1 -110 4 -115 7 -5 3
-10 18 -11 34 l-2 28 110 0 110 0 -6 32 c-6 29 -4 33 16 33 23 0 23 11 5 113
-3 15 -7 39 -10 53 -6 37 -9 40 -53 43 -12 1 -22 15 -30 49 -7 26 -38 109 -68
185 -31 77 -53 142 -49 145 6 7 44 -36 45 -50 0 -4 14 -37 31 -73 l32 -65 83
0 84 0 -21 53 c-11 28 -29 69 -40 90 -10 21 -19 40 -19 43 0 3 17 5 38 4 65
-3 63 -4 60 53 -3 49 -5 52 -28 49 -18 -1 -21 1 -11 7 11 7 11 9 0 14 -10 4
-10 6 -1 6 6 1 12 6 12 12 0 5 -4 7 -10 4 -6 -4 -10 6 -10 23 0 36 -7 39 -93
37 l-69 -1 -60 88 c-55 83 -149 205 -213 276 -28 32 -30 32 -121 32 l-93 0
-70 73 -70 73 -111 -1 c-66 0 -114 4 -119 10 -13 17 -51 127 -47 134 3 3 91 6
196 6 l192 -1 -33 28 c-31 26 -38 28 -133 27 -188 -2 -174 -5 -261 59 -44 32
-118 82 -165 111 l-85 52 62 -3 c33 -2 59 0 57 4 -6 9 -207 92 -296 122 -83
28 -199 59 -293 80 -33 8 -94 23 -135 34 -124 33 -223 51 -400 71 -67 8 -454
13 -462 6z m957 -410 c91 -33 295 -118 292 -122 -2 -1 -40 -4 -85 -5 -45 -1
-82 -3 -82 -5 0 -12 94 -46 133 -48 26 -1 49 -4 51 -6 11 -14 66 -98 66 -102
0 -4 -105 2 -136 8 -12 3 -36 27 -53 54 -36 56 -123 143 -200 200 -82 61 -82
61 14 26z m15 -92 c0 -7 -39 17 -46 28 -3 6 5 3 20 -6 14 -10 26 -19 26 -22z
m624 -143 c45 -77 52 -99 29 -95 -10 1 -23 -1 -29 -6 -25 -20 -52 4 -86 77
-19 40 -31 75 -26 76 4 2 24 4 43 4 33 1 38 -3 69 -56z m85 -172 c41 -34 68
-64 61 -66 -7 -3 -24 8 -39 22 -14 15 -45 45 -69 67 -69 62 -33 45 47 -23z
m-98 25 c13 -15 12 -15 -11 -3 -34 17 -36 20 -18 20 9 0 22 -7 29 -17z m230
-243 c66 -76 142 -174 172 -220 l16 -25 -129 0 c-70 0 -126 3 -123 8 19 31 6
209 -23 299 -12 38 22 14 87 -62z m-106 11 c3 -11 7 -29 9 -40 12 -53 15 -91
7 -91 -8 0 -31 106 -31 145 0 23 9 15 15 -14z m-3128 -98 c-2 -16 -4 -3 -4 27
0 30 2 43 4 28 2 -16 2 -40 0 -55z m3153 -63 c0 -11 -2 -20 -4 -20 -2 0 -6 9
-9 20 -3 11 -1 20 4 20 5 0 9 -9 9 -20z m730 -82 c0 -4 -4 -8 -10 -8 -5 0 -10
5 -10 11 0 6 -9 25 -21 42 -20 32 -20 32 10 -3 17 -19 31 -38 31 -42z m-4240
-182 c0 -18 -52 -115 -64 -119 -19 -8 -19 -7 -3 29 25 57 48 94 57 94 6 0 10
-2 10 -4z m170 -41 c-10 -19 -11 -30 -2 -50 7 -14 12 -28 12 -30 0 -6 -44 0
-50 7 -6 7 43 108 49 102 2 -2 -2 -15 -9 -29z m45 -73 c-6 -7 -35 18 -35 31 0
5 9 2 20 -8 11 -10 18 -20 15 -23z m-389 -11 c28 -1 31 -4 26 -26 -4 -25 -5
-25 -113 -25 -60 0 -109 4 -109 8 0 33 55 51 140 45 14 -1 39 -2 56 -2z m4543
-393 c7 -40 14 -80 17 -88 3 -12 -3 -16 -21 -16 -26 0 -30 7 -39 66 -12 82
-18 115 -22 122 -8 13 31 15 42 2 6 -7 16 -46 23 -86z m-4103 -300 c13 -21 24
-50 24 -65 -1 -24 -5 -19 -30 32 -17 33 -29 71 -29 85 1 20 2 21 6 6 3 -11 16
-37 29 -58z m-800 -456 l1 -197 -81 0 c-45 0 -85 3 -91 7 -6 4 -10 66 -10 155
l0 148 55 1 c70 0 80 7 80 50 0 29 4 34 23 34 l22 0 1 -198z m3663 171 c-1
-24 -27 -101 -28 -85 -1 7 -5 10 -11 7 -5 -3 -1 13 10 37 10 23 16 46 14 50
-3 4 0 8 5 8 6 0 11 -8 10 -17z m-2729 -77 c1 -20 -45 24 -58 55 l-13 34 35
-40 c19 -22 35 -44 36 -49z m4144 -256 c-1 -19 -2 -51 -3 -70 l-1 -35 -68 1
c-38 0 -73 3 -78 7 -6 3 -9 23 -8 44 1 21 3 49 3 63 1 25 2 26 79 25 l77 0 -1
-35z m-1417 -52 c-3 -8 -6 -5 -6 6 -1 11 2 17 5 13 3 -3 4 -12 1 -19z m-3657
-80 c0 -30 3 -29 -100 -29 -82 0 -79 -1 -76 29 2 15 4 27 5 27 0 0 39 0 86 0
l85 0 0 -27z m3687 -30 c-3 -7 -5 -2 -5 12 0 14 2 19 5 13 2 -7 2 -19 0 -25z
m-3161 -91 c8 -7 4 -8 -66 -9 -77 -1 -96 2 -83 10 15 10 140 9 149 -1z m-18
-66 c18 -1 31 -5 28 -9 -3 -5 -41 -9 -85 -9 -57 0 -78 4 -72 11 5 6 29 10 53
10 23 -1 58 -2 76 -3z m554 -49 c7 -31 26 -72 45 -97 43 -57 42 -83 -2 -118
-31 -25 -43 -28 -98 -27 -34 1 -97 1 -139 1 l-78 -1 0 -50 0 -50 -79 0 -78 0
-27 61 c-14 33 -23 65 -20 71 3 5 25 9 48 8 71 -3 78 -1 72 18 -3 9 -8 37 -11
62 -3 25 -7 55 -10 68 -4 25 -15 23 145 24 64 0 118 5 121 10 12 19 -3 48 -25
49 -11 0 -70 1 -131 1 -112 0 -158 9 -95 18 19 3 106 5 192 5 l158 0 12 -53z
m-523 -36 c5 -4 10 -14 9 -24 0 -9 2 -33 5 -52 l5 -35 -84 3 -85 3 7 -28 c4
-15 20 -59 36 -97 33 -81 32 -76 12 -76 -9 0 -27 26 -45 66 -27 59 -30 76 -28
153 1 47 3 88 4 91 4 7 151 3 164 -4z m-1675 -54 c3 -5 -1 -9 -9 -9 -8 0 -12
4 -9 9 3 4 7 8 9 8 2 0 6 -4 9 -8z m1670 -402 c35 -67 10 -67 -26 0 -20 36
-24 50 -14 50 8 0 26 -22 40 -50z m325 26 c-6 -12 -30 -35 -54 -51 -25 -17
-45 -34 -45 -38 0 -18 -22 7 -45 53 -14 27 -25 51 -25 54 0 2 40 4 89 4 89 1
90 1 80 -22z m3730 -306 c-17 -63 -31 -121 -32 -127 0 -7 -11 -13 -24 -13 -27
0 -27 -2 -7 46 9 22 27 75 40 119 33 109 33 110 44 99 6 -6 -2 -52 -21 -124z
m-287 -302 c-15 -15 -56 -22 -47 -7 4 6 13 8 21 5 7 -3 16 -1 19 4 4 6 9 10
13 10 3 0 1 -5 -6 -12z m2 -32 c-3 -8 -13 -17 -22 -21 -13 -5 -13 -2 3 15 21
24 26 25 19 6z m-54 -21 c0 -8 -54 -54 -58 -50 -2 2 9 15 24 29 30 27 34 29
34 21z m-90 -18 c0 -2 -10 -12 -22 -23 l-23 -19 19 23 c18 21 26 27 26 19z
m-755 -677 c-3 -5 -11 -10 -16 -10 -6 0 -7 5 -4 10 3 6 11 10 16 10 6 0 7 -4
4 -10z m-180 -40 c-54 -23 -213 -79 -240 -84 -24 -4 -22 -1 15 16 25 12 50 23
55 24 6 2 44 14 85 28 73 24 127 34 85 16z m-388 -86 c-3 -3 -12 -4 -19 -1 -8
3 -5 6 6 6 11 1 17 -2 13 -5z m50 -19 c0 -10 -6 -14 -14 -10 -8 3 -20 5 -26 6
-7 1 -1 5 13 9 14 4 25 8 26 9 0 1 1 -6 1 -14z"/>
<path d="M5866 5601 c-2 -3 17 -43 43 -87 l46 -81 82 0 81 0 -18 46 c-37 93
-50 121 -58 122 -28 5 -174 4 -176 0z"/>
<path d="M6458 4832 c-5 -18 -3 -20 10 -13 10 5 25 7 35 6 9 -2 14 1 11 7 -3
5 -15 8 -25 5 -10 -3 -20 0 -22 6 -2 6 -6 2 -9 -11z"/>
<path d="M6524 4833 c1 -12 -6 -18 -21 -18 -12 0 -24 -3 -27 -6 -3 -3 17 -6
44 -5 34 0 49 4 46 11 -2 7 2 12 9 12 7 0 11 -6 9 -12 -4 -8 28 -12 115 -12
66 0 118 4 115 8 -3 5 -1 9 4 9 5 0 9 7 9 15 0 8 -4 15 -9 15 -4 0 -8 -7 -8
-15 0 -17 -1 -17 -48 -19 -18 -1 -36 2 -39 7 -3 6 -1 7 5 3 7 -4 12 -3 12 3 0
6 -16 9 -35 7 -19 -1 -37 2 -39 8 -3 7 -5 7 -5 -1 -1 -8 -10 -9 -30 -3 -22 6
-28 5 -25 -4 3 -8 23 -12 54 -11 28 1 47 -1 44 -4 -10 -11 -113 -7 -111 4 1 5
-10 10 -24 11 -14 1 -31 4 -36 7 -6 4 -10 -1 -9 -10z"/>
<path d="M6750 4835 c0 -8 2 -15 4 -15 2 0 6 7 10 15 3 8 1 15 -4 15 -6 0 -10
-7 -10 -15z"/>
<path d="M6775 4830 c-3 -5 -2 -10 4 -10 5 0 13 5 16 10 3 6 2 10 -4 10 -5 0
-13 -4 -16 -10z"/>
<path d="M6836 4824 c-4 -9 -4 -19 -2 -22 10 -9 36 8 36 23 0 20 -26 19 -34
-1z"/>
<path d="M5204 4574 c3 -22 5 -54 5 -73 1 -49 10 -34 17 30 5 43 2 58 -10 68
-14 12 -15 9 -12 -25z"/>
<path d="M6428 4242 c8 -37 17 -83 21 -102 l6 -35 117 -2 c65 -1 120 2 123 6
7 12 -26 185 -37 192 -5 3 -62 6 -127 6 l-118 1 15 -66z"/>
<path d="M1678 4193 c0 -21 -2 -42 -3 -48 -2 -5 -3 -16 -4 -24 -1 -8 -8 -11
-21 -8 -24 6 -38 -9 -42 -48 l-3 -30 76 -1 75 -2 11 39 c7 26 7 39 0 42 -9 3
-12 63 -5 99 2 9 -12 14 -39 16 l-43 3 -2 -38z"/>
<path d="M5380 4002 c0 -36 2 -39 27 -37 23 1 27 5 27 35 0 31 -4 35 -27 38
-25 3 -27 1 -27 -36z"/>
<path d="M5896 4032 c-3 -5 -4 -21 -2 -37 3 -24 8 -29 30 -30 24 -2 26 1 26
37 0 34 -3 38 -24 38 -14 0 -27 -4 -30 -8z"/>
<path d="M1566 3750 c-7 -15 -6 -180 1 -181 49 -4 134 -1 140 5 4 4 8 46 10
95 l2 87 -75 0 c-42 0 -77 -3 -78 -6z"/>
<path d="M6499 2952 c-5 -14 -10 -40 -11 -59 -1 -18 -5 -34 -10 -34 -4 -1 -31
-2 -60 -3 l-51 -1 -19 -55 c-10 -30 -22 -64 -27 -75 -26 -56 -27 -55 64 -55
85 0 92 3 96 45 0 6 4 15 9 20 4 6 11 25 15 43 7 34 16 37 83 33 27 -2 32 1
33 21 0 22 3 45 13 98 7 39 -3 46 -67 46 -54 0 -60 -2 -68 -24z"/>
<path d="M6649 2956 c0 -12 -2 -30 -5 -41 -2 -11 -6 -39 -9 -62 l-6 -42 76 1
c86 1 84 -1 88 103 l2 59 -72 1 c-67 1 -73 0 -74 -19z"/>
<path d="M6942 2966 c-8 -13 -9 -21 -17 -98 l-6 -57 66 1 c36 1 65 4 66 7 2
12 6 57 10 106 l4 49 -58 2 c-33 1 -61 -4 -65 -10z"/>
<path d="M447 2917 c-3 -7 1 -24 8 -37 12 -22 12 -22 11 13 -1 37 -10 48 -19
24z"/>
<path d="M510 2921 c0 -5 -8 -8 -17 -7 -19 1 -24 -19 -10 -47 6 -12 12 -15 20
-9 7 5 22 8 35 6 16 -3 21 0 16 8 -4 7 2 5 13 -5 21 -18 22 -18 32 0 7 12 10
14 11 4 0 -8 3 -11 6 -8 9 9 -16 38 -27 32 -4 -3 -6 -13 -3 -23 3 -9 -2 -6
-10 8 -8 14 -15 21 -16 17 0 -4 -9 -3 -20 3 -11 6 -18 15 -15 21 4 5 1 9 -4 9
-6 0 -11 -4 -11 -9z m21 -28 c8 -8 7 -13 -2 -18 -7 -5 -10 -4 -5 3 3 6 2 13
-3 16 -5 4 -13 -3 -16 -15 -8 -23 -14 -21 -19 8 -3 14 1 19 15 18 11 -1 24 -6
30 -12z"/>
<path d="M415 2910 c-3 -5 0 -10 7 -10 9 0 9 -3 -2 -10 -10 -6 -11 -10 -2 -10
6 0 11 -4 10 -9 -4 -13 16 -15 20 -2 2 6 -1 11 -7 11 -5 0 -8 9 -6 20 4 21 -9
27 -20 10z"/>
<path d="M633 2867 c3 -7 11 -10 18 -8 8 2 20 4 27 4 20 1 4 10 -24 13 -16 2
-24 -1 -21 -9z"/>
<path d="M6263 2482 l-51 -3 -41 -69 c-23 -38 -41 -72 -41 -77 0 -7 136 -10
172 -4 11 2 80 142 74 149 -7 6 -45 8 -113 4z"/>
<path d="M5888 1862 c-38 -2 -68 -7 -68 -13 0 -5 -11 -32 -25 -61 -14 -28 -25
-54 -25 -58 0 -3 38 -6 85 -6 l84 1 26 68 c14 37 25 69 25 70 0 3 -13 3 -102
-1z"/>
<path d="M6205 1845 c-54 -86 -65 -107 -61 -114 7 -11 194 -7 205 4 4 6 20 36
34 68 l26 57 -67 1 c-37 0 -80 2 -96 3 -19 1 -32 -5 -41 -19z"/>
<path d="M5770 1528 c-22 -8 -27 -27 -7 -29 48 -6 95 -4 111 4 18 9 18 10 2
19 -23 13 -80 16 -106 6z"/>
<path d="M6107 1532 c-38 -11 -41 -12 -28 -25 17 -17 228 -17 243 0 7 9 6 14
-5 19 -17 6 -189 11 -210 6z"/>
<path d="M6538 1532 c-19 -4 -22 -11 -10 -28 8 -12 107 -12 119 -1 18 19 -61
39 -109 29z"/>
<path d="M4450 969 c-67 -24 -123 -42 -132 -43 -3 -1 -10 -4 -14 -8 -4 -5 -16
-8 -27 -8 -11 0 -18 -3 -14 -6 11 -11 141 18 187 42 91 47 91 56 0 23z"/>
<path d="M3561 956 c13 -14 277 -27 285 -15 3 5 4 9 2 10 -20 4 -291 9 -287 5z"/>
<path d="M3898 953 c7 -3 16 -2 19 1 4 3 -2 6 -13 5 -11 0 -14 -3 -6 -6z"/>
</g>
</svg>
